<svg clip-rule="evenodd" fill-rule="evenodd" height="512" stroke-linejoin="round" stroke-miterlimit="2" viewBox="0 0 48 48" width="512" xmlns="http://www.w3.org/2000/svg"><g transform="translate(-48 -192)"><g id="Icon"><g transform="translate(-2 149.93)"><path d="m62 83h.815c1.158 0 2.164-.795 2.432-1.921l.405-1.702c.053-.221.248-.378.475-.384.227-.005.429.143.492.362l.586 2.029c.262.911 1.018 1.595 1.951 1.766s1.882-.2 2.451-.959l.155-.207c.087-.116.22-.189.365-.199.144-.01.286.043.389.145l.338.338c.468.469 1.104.732 1.767.732h1.379c.552 0 1-.448 1-1s-.448-1-1-1h-1.379c-.132 0-.259-.053-.353-.146 0 0-.338-.338-.338-.338-.512-.513-1.222-.777-1.945-.726s-1.388.414-1.823.994l-.155.207c-.114.152-.304.226-.49.192-.187-.034-.338-.171-.391-.353l-.585-2.03c-.315-1.091-1.326-1.833-2.461-1.806s-2.11.815-2.373 1.92c0 0-.405 1.702-.405 1.702-.054.225-.255.384-.487.384h-.815c-.552 0-1 .448-1 1s.448 1 1 1z"/></g><path d="m86 221c-4.967 0-9 4.033-9 9s4.033 9 9 9 9-4.033 9-9-4.033-9-9-9zm0 2c3.863 0 7 3.137 7 7s-3.137 7-7 7-7-3.137-7-7 3.137-7 7-7z"/><g transform="matrix(.707 -.707 .707 .707 -138.506 127.47)"><path d="m83 229v3c0 .552.448 1 1 1h6c.552 0 1-.448 1-1s-.448-1-1-1h-5v-2c0-.552-.448-1-1-1s-1 .448-1 1z"/></g><path d="m87 218c0-8.851 0-14.792 0-18.5 0-.663-.263-1.299-.732-1.768s-1.105-.732-1.768-.732h-29c-.663 0-1.299.263-1.768.732s-.732 1.105-.732 1.768v37c0 .663.263 1.299.732 1.768s1.105.732 1.768.732h20.5c.552 0 1-.448 1-1s-.448-1-1-1h-20.5c-.133 0-.26-.053-.354-.146-.093-.094-.146-.221-.146-.354v-37c0-.133.053-.26.146-.354.094-.093.221-.146.354-.146h29c.133 0 .26.053.354.146.093.094.146.221.146.354v18.5c0 .552.448 1 1 1s1-.448 1-1z"/><path d="m82 193h-30.5c-.663 0-1.299.263-1.768.732s-.732 1.105-.732 1.768v38.5c0 .552.448 1 1 1s1-.448 1-1c0 0 0-31.229 0-38.5 0-.133.053-.26.146-.354.094-.093.221-.146.354-.146h30.5c.552 0 1-.448 1-1s-.448-1-1-1z"/><path d="m70 205h10c.552 0 1-.448 1-1s-.448-1-1-1h-10c-.552 0-1 .448-1 1s.448 1 1 1z"/><path d="m60 209h20c.552 0 1-.448 1-1s-.448-1-1-1h-20c-.552 0-1 .448-1 1s.448 1 1 1z"/><path d="m60 213h12c.552 0 1-.448 1-1s-.448-1-1-1h-12c-.552 0-1 .448-1 1s.448 1 1 1z"/><path d="m76 213h4c.552 0 1-.448 1-1s-.448-1-1-1h-4c-.552 0-1 .448-1 1s.448 1 1 1z"/><path d="m64 217h16c.552 0 1-.448 1-1s-.448-1-1-1h-16c-.552 0-1 .448-1 1s.448 1 1 1z"/><circle cx="60" cy="216" r="1"/></g></g></svg>