<svg clip-rule="evenodd" fill-rule="evenodd" height="512" stroke-linejoin="round" stroke-miterlimit="2" viewBox="0 0 48 48" width="512" xmlns="http://www.w3.org/2000/svg"><g transform="translate(-240 -240)"><g id="Icon"><path d="m259 259.514v2.486c0 4.971 4.029 9 9 9 4.971 0 9-4.029 9-9v-2.486l1.493-.249c1.447-.241 2.507-1.493 2.507-2.959 0-.101 0-.204 0-.306 0-.796-.316-1.559-.879-2.121-.327-.328-.723-.572-1.153-.719-.2-2.61-1.326-5.074-3.19-6.938-1.354-1.354-3.025-2.319-4.838-2.822-.278-1.369-1.489-2.4-2.94-2.4s-2.662 1.031-2.94 2.4c-1.813.503-3.484 1.468-4.838 2.822-1.864 1.864-2.99 4.328-3.19 6.938-.43.147-.826.391-1.153.719-.563.562-.879 1.325-.879 2.121v.306c0 1.466 1.06 2.718 2.507 2.959zm16 .333-5.52.92c-.98.163-1.98.163-2.96 0l-5.52-.92v2.153c0 3.866 3.134 7 7 7 3.866 0 7-3.134 7-7zm4-3.847v.306c0 .489-.353.906-.836.986 0 0-9.013 1.502-9.013 1.502-.762.127-1.54.127-2.302 0 0 0-9.013-1.502-9.013-1.502-.483-.08-.836-.497-.836-.986 0-.101 0-.204 0-.306 0-.265.105-.52.293-.707.187-.188.442-.293.707-.293h20c.265 0 .52.105.707.293.188.187.293.442.293.707zm-8-3h5.944c-.225-2.019-1.13-3.914-2.58-5.364-.958-.958-2.11-1.678-3.364-2.121zm-2 0v-9c0-.552-.448-1-1-1s-1 .448-1 1v9zm-4 0v-7.485c-1.254.443-2.406 1.163-3.364 2.121-1.45 1.45-2.355 3.345-2.58 5.364z"/><path d="m252 287h32c1.657 0 3-1.343 3-3v-2c0-2.387-.948-4.676-2.636-6.364s-3.977-2.636-6.364-2.636h-20c-2.387 0-4.676.948-6.364 2.636s-2.636 3.977-2.636 6.364v2c0 1.657 1.343 3 3 3zm2.507-11.066c-.528.304-1.019.678-1.457 1.116-1.312 1.313-2.05 3.093-2.05 4.95v2c0 .552.448 1 1 1h5v-5.312c0-.79-.312-1.548-.867-2.11zm4.493 7.066v2h18v-2zm22.485-7.071-1.606 1.607c-.563.562-.879 1.325-.879 2.121v5.343h5c.552 0 1-.448 1-1v-2c0-1.857-.738-3.637-2.05-4.95-.441-.44-.934-.816-1.465-1.121zm-2.048-.78c-.469-.098-.951-.149-1.437-.149h-3.5l-2.5 3.333c-.944 1.259-2.426 2-4 2s-3.056-.741-4-2l-2.5-3.333h-3.5c-.492 0-.979.052-1.453.153l1.008 1.019c.926.936 1.445 2.199 1.445 3.516v1.312h18v-1.343c0-1.326.527-2.598 1.464-3.536zm-15.437-.149h8s-1.6 2.133-1.6 2.133c-.567.756-1.456 1.2-2.4 1.2s-1.833-.444-2.4-1.2z"/><path d="m255.048 269.221c-.424-.111-.841-.247-1.249-.408-.918-.364-1.965-.128-2.638.594l-.958 1.023c-.132.141-.346.167-.507.062-.348-.231-.686-.477-1.015-.733-.15-.122-.19-.334-.096-.504.22-.398.471-.85.68-1.235.474-.854.376-1.921-.252-2.681-.274-.335-.532-.69-.767-1.06 0 0 0 0 0-.001-.529-.833-1.515-1.258-2.484-1.07l-1.376.265c-.19.037-.378-.068-.447-.248-.145-.391-.274-.789-.39-1.189-.049-.187.042-.383.218-.464 0 0 0-.001.001-.001.412-.192.881-.41 1.276-.598.886-.413 1.433-1.334 1.371-2.319-.024-.431-.024-.87.003-1.308.062-.985-.485-1.908-1.38-2.326l-1.269-.594c-.175-.082-.266-.278-.215-.464.112-.402.241-.799.383-1.191.07-.18.259-.285.449-.247h.001c.446.087.954.185 1.384.265.959.187 1.944-.236 2.472-1.069.234-.364.492-.719.771-1.056.001 0 .001-.001.001-.001.629-.76.728-1.829.25-2.692l-.677-1.227c-.094-.169-.052-.381.098-.502.327-.259.665-.504 1.01-.739.163-.104.377-.077.509.064v.001c.31.332.663.711.964 1.028.666.715 1.712.951 2.629.589.403-.157.82-.293 1.245-.402.956-.245 1.665-1.052 1.785-2.031l.174-1.391c.023-.192.181-.339.374-.348.417-.017.834-.017 1.251-.004.133.007.249.08.316.186.295.467.913.606 1.38.312.466-.295.606-.913.311-1.38-.408-.645-1.113-1.079-1.918-1.116-.005 0-.009 0-.014-.001-.471-.015-.942-.015-1.413.005-.001 0-.003 0-.004 0-1.168.054-2.126.943-2.268 2.103-.058.443-.121.956-.174 1.389-.02.164-.138.298-.297.339-.502.129-.996.289-1.479.477-.002 0-.003.001-.005.002-.152.06-.324.021-.436-.098l-.957-1.023c-.798-.856-2.098-1.013-3.076-.369-.004.002-.008.005-.011.008-.39.264-.772.541-1.141.834-.001.001-.002.002-.003.002-.913.731-1.166 2.013-.599 3.035.214.392.464.844.676 1.226.08.144.064.322-.041.449-.331.399-.636.818-.916 1.254-.001.002-.002.004-.003.005-.088.138-.25.208-.41.177l-1.376-.264c-1.149-.225-2.292.413-2.705 1.508-.002.005-.004.009-.005.013-.16.444-.306.892-.433 1.346 0 .001 0 .002-.001.004-.309 1.127.24 2.313 1.299 2.807.404.191.872.409 1.268.594.149.069.241.223.23.387-.032.517-.033 1.036-.003 1.554v.006c.01.162-.08.315-.228.383l-1.268.595c-1.061.494-1.612 1.682-1.302 2.811.001.005.003.009.004.014.131.452.277.9.441 1.342 0 .001.001.003.001.004.413 1.094 1.554 1.731 2.701 1.507.439-.082.946-.181 1.375-.264.162-.032.326.039.414.178.278.438.582.857.911 1.259.001.001.002.003.003.004.104.126.12.302.041.445l-.676 1.227c-.568 1.023-.315 2.307.599 3.039.004.003.007.006.011.008.372.29.753.566 1.146.827.001.001.002.002.003.003.977.642 2.274.487 3.071-.369.307-.324.659-.702.957-1.022.112-.12.287-.159.44-.099.481.191.975.352 1.476.484.534.14 1.081-.179 1.222-.713.14-.534-.179-1.081-.713-1.222z"/><path d="m253.895 249.99c-2.905 1.493-4.895 4.521-4.895 8.01 0 4.447 3.232 8.144 7.474 8.871.544.093 1.061-.273 1.155-.817.093-.544-.273-1.061-.817-1.155-3.299-.564-5.812-3.441-5.812-6.899 0-2.714 1.549-5.07 3.809-6.231.491-.252.685-.856.433-1.347-.252-.49-.856-.684-1.347-.432z"/></g></g></svg>