<svg clip-rule="evenodd" fill-rule="evenodd" height="512" stroke-linejoin="round" stroke-miterlimit="2" viewBox="0 0 48 48" width="512" xmlns="http://www.w3.org/2000/svg"><g transform="translate(-48 -264)"><g id="Icon"><path d="m59 304c0-.552-.448-1-1-1h-8c-.552 0-1 .448-1 1v6c0 .552.448 1 1 1h8c.552 0 1-.448 1-1zm-2 1v4h-6v-4z"/><path d="m50 299h3.289c13.526 0 26.498-5.373 36.063-14.938 3.047-3.047 5.355-5.355 5.355-5.355.39-.39.39-1.024 0-1.414s-1.024-.39-1.414 0c0 0-2.308 2.308-5.355 5.355-9.19 9.19-21.653 14.352-34.649 14.352h-3.289c-.552 0-1 .448-1 1s.448 1 1 1z"/><path d="m95 286.485c0-.404-.244-.769-.617-.924-.374-.154-.804-.069-1.09.217l-1.113 1.113c-2.109 2.109-4.372 4.029-6.764 5.751-.261.188-.416.49-.416.812v16.546c0 .552.448 1 1 1h8c.552 0 1-.448 1-1zm-2 2.405v20.11h-6v-15.037c2.104-1.543 4.109-3.236 6-5.073z"/><path d="m83 296.08c0-.36-.193-.692-.506-.869-.313-.178-.698-.174-1.007.011-2.514 1.501-5.142 2.798-7.857 3.878-.38.152-.63.52-.63.929v9.971c0 .552.448 1 1 1h8c.552 0 1-.448 1-1zm-2 1.731v11.189h-6v-8.297c2.053-.845 4.057-1.811 6-2.892z"/><path d="m71 301.449c0-.318-.151-.618-.408-.806-.256-.189-.587-.244-.89-.149-2.564.802-5.189 1.417-7.858 1.837-.486.076-.844.495-.844.988v6.681c0 .552.448 1 1 1h8c.552 0 1-.448 1-1zm-2 1.343v6.208h-6v-4.833c2.028-.351 4.03-.81 6-1.375z"/><g transform="translate(0 198)"><path d="m59 77h-1c-1.657 0-3 1.343-3 3 0 1.657 1.343 3 3 3h1v2h-1c-.552 0-1-.448-1-1s-.448-1-1-1-1 .448-1 1c0 1.657 1.343 3 3 3h1v1c0 .552.448 1 1 1s1-.448 1-1v-1h1c1.657 0 3-1.343 3-3 0-1.657-1.343-3-3-3h-1v-2h1c.552 0 1 .448 1 1s.448 1 1 1 1-.448 1-1c0-1.657-1.343-3-3-3h-1v-1c0-.552-.448-1-1-1s-1 .448-1 1zm2 6v2h1c.552 0 1-.448 1-1s-.448-1-1-1zm-2-4h-1c-.552 0-1 .448-1 1s.448 1 1 1h1z"/></g><path d="m55.004 272.515c1.43-.957 3.149-1.515 4.996-1.515 4.967 0 9 4.033 9 9s-4.033 9-9 9-9-4.033-9-9c0-1.817.54-3.509 1.468-4.925.302-.461.173-1.082-.288-1.384-.462-.303-1.082-.174-1.385.288-1.135 1.73-1.795 3.799-1.795 6.021 0 6.071 4.929 11 11 11s11-4.929 11-11-4.929-11-11-11c-2.259 0-4.359.682-6.108 1.852-.458.307-.582.929-.275 1.388.307.458.929.581 1.387.275z"/></g></g></svg>