<svg clip-rule="evenodd" fill-rule="evenodd" height="512" stroke-linejoin="round" stroke-miterlimit="2" viewBox="0 0 48 48" width="512" xmlns="http://www.w3.org/2000/svg"><g transform="translate(-264 -192)"><g id="Icon"><g transform="translate(-3 -1)"><path d="m273.293 199.293-4 4c-.39.39-.39 1.024 0 1.414s1.024.39 1.414 0l4-4c.39-.39.39-1.024 0-1.414s-1.024-.39-1.414 0z"/></g><g transform="matrix(-1 0 0 1 574 -2)"><path d="m274.707 200.707-4 4c-.39.39-1.024.39-1.414 0s-.39-1.024 0-1.414l4-4c.39-.39 1.024-.39 1.414 0s.39 1.024 0 1.414z"/></g><g transform="translate(62 136)"><path d="m237 87h-.002c-.795 0-1.558.316-2.12.878s-.878 1.325-.878 2.12v.002c0 1.657 1.343 3 3 3h2c.552 0 1 .448 1 1v.002c0 .265-.105.519-.292.706s-.441.292-.706.292c-1.223 0-.781 0-2.004 0-.265 0-.519-.105-.706-.292s-.292-.441-.292-.706c0-.552-.448-1-1-1s-1 .448-1 1c0 .795.316 1.558.878 2.12s1.325.878 2.12.878h.002v1c0 .552.448 1 1 1s1-.448 1-1v-1h.002c.795 0 1.558-.316 2.12-.878s.878-1.325.878-2.12v-.002c0-1.657-1.343-3-3-3h-2c-.552 0-1-.448-1-1v-.002c0-.265.105-.519.292-.706s.441-.292.706-.292h2.004c.265 0 .519.105.706.292s.292.441.292.706c0 .552.448 1 1 1s1-.448 1-1c0-.795-.316-1.558-.878-2.12s-1.325-.878-2.12-.878h-.002v-1c0-.552-.448-1-1-1s-1 .448-1 1z"/></g><g transform="translate(62 136)"><path d="m238 81c-6.071 0-11 4.929-11 11s4.929 11 11 11 11-4.929 11-11-4.929-11-11-11zm0 2c4.967 0 9 4.033 9 9s-4.033 9-9 9-9-4.033-9-9 4.033-9 9-9z"/></g><path d="m283.171 217h-7.171c-.552 0-1 .448-1 1s.448 1 1 1h7.171c.412 1.165 1.524 2 2.829 2 1.656 0 3-1.344 3-3s-1.344-3-3-3c-1.305 0-2.417.835-2.829 2zm2.829 0c.552 0 1 .448 1 1s-.448 1-1 1-1-.448-1-1 .448-1 1-1z"/><path d="m286 201c6.281 0 11.77 3.413 14.714 8.486.003.004.006.009.008.014.003.004.005.008.007.012.773 1.337 1.369 2.79 1.756 4.325.135.535-.19 1.079-.725 1.214s-1.079-.19-1.214-.725c-.259-1.027-.624-2.013-1.083-2.944l-.839.484c-.478.276-1.09.112-1.366-.366s-.112-1.09.366-1.366l.837-.483c-1.09-1.623-2.489-3.021-4.112-4.112l-.483.837c-.276.478-.888.642-1.366.366s-.642-.888-.366-1.366l.484-.839c-1.714-.845-3.613-1.372-5.618-1.504v.967c0 .552-.448 1-1 1s-1-.448-1-1v-.967c-2.006.132-3.904.659-5.618 1.504l.484.839c.276.478.112 1.09-.366 1.366s-1.09.112-1.366-.366l-.483-.837c-1.623 1.091-3.022 2.49-4.112 4.112l.837.483c.478.276.642.888.366 1.366s-.888.642-1.366.366l-.839-.484c-.845 1.713-1.372 3.612-1.504 5.618h.967c.552 0 1 .448 1 1s-.448 1-1 1h-.967c.132 2.006.659 3.904 1.504 5.618l.839-.484c.478-.276 1.09-.112 1.366.366s.112 1.09-.366 1.366l-.837.483c1.091 1.623 2.49 3.022 4.112 4.112l.483-.837c.276-.478.888-.642 1.366-.366s.642.888.366 1.366l-.484.839c1.713.845 3.612 1.372 5.618 1.504v-.967c0-.552.448-1 1-1s1 .448 1 1v.967c.081-.005.161-.011.242-.018.55-.045 1.033.365 1.078.915.046.55-.364 1.033-.914 1.079-.463.038-.932.057-1.406.057-9.383 0-17-7.617-17-17s7.617-17 17-17z"/><path d="m281 197.6c-9.179 2.245-16 10.532-16 20.4 0 5.04 1.779 9.667 4.743 13.288.35.427.98.49 1.407.141.427-.35.49-.981.141-1.408-2.682-3.275-4.291-7.462-4.291-12.021 0-10.486 8.514-19 19-19 9.604 0 17.554 7.141 18.823 16.398.075.547.58.93 1.127.855.546-.075.929-.58.854-1.126-1.174-8.572-7.531-15.503-15.804-17.527v-2.1c0-.663-.263-1.299-.732-1.768s-1.105-.732-1.768-.732c-1.43 0-3.57 0-5 0-.663 0-1.299.263-1.768.732s-.732 1.105-.732 1.768zm8-.387v-1.713c0-.133-.053-.26-.146-.354-.094-.093-.221-.146-.354-.146h-5c-.133 0-.26.053-.354.146-.093.094-.146.221-.146.354v1.713c.979-.14 1.981-.213 3-.213 1.018 0 2.019.073 3 .213z"/><path d="m289.651 236.649c-1.181.23-2.402.351-3.651.351-4.559 0-8.746-1.609-12.021-4.291-.427-.349-1.058-.286-1.408.141-.349.427-.286 1.057.141 1.407 3.621 2.964 8.248 4.743 13.288 4.743 1.38 0 2.729-.134 4.034-.388.542-.106.896-.631.79-1.173s-.631-.896-1.173-.79z"/></g></g></svg>